<?xml version="1.0" standalone="no"?>
<!DOCTYPE svg PUBLIC "-//W3C//DTD SVG 20010904//EN"
 "http://www.w3.org/TR/2001/REC-SVG-20010904/DTD/svg10.dtd">
<svg version="1.0" xmlns="http://www.w3.org/2000/svg"
 width="573.000000pt" height="202.000000pt" viewBox="0 0 573.000000 202.000000"
 preserveAspectRatio="xMidYMid meet">

<g transform="translate(0.000000,202.000000) scale(0.100000,-0.100000)"
fill="#000000" stroke="none">
<path d="M3409 1906 c-2 -2 -42 -6 -89 -10 -119 -8 -200 -18 -200 -23 0 -4
198 -353 205 -361 1 -1 47 57 103 130 l100 132 -46 68 c-42 61 -60 76 -73 64z"/>
<path d="M2545 1889 c-33 -4 -89 -9 -125 -12 -55 -4 -67 -9 -86 -33 -54 -67
-56 -61 46 -196 51 -68 96 -127 100 -131 4 -5 49 65 100 155 51 89 101 178
112 196 l20 33 -53 -3 c-30 -2 -81 -6 -114 -9z"/>
<path d="M5406 1825 c-54 -6 -104 -10 -112 -9 -11 2 -14 -24 -13 -144 l1 -147
123 -115 c68 -63 128 -116 134 -118 8 -3 11 76 11 270 l0 274 -22 0 c-13 0
-67 -5 -122 -11z"/>
<path d="M1077 1814 c-2 -2 -130 -13 -212 -18 -33 -3 -38 -10 -94 -134 l-53
-119 57 -144 c31 -79 61 -155 67 -169 9 -24 10 -24 20 -6 9 17 268 587 268
590 0 3 -50 2 -53 0z"/>
<path d="M378 1675 c-3 -3 -155 -17 -194 -18 -20 -1 -19 -6 20 -93 322 -718
401 -894 406 -894 9 1 130 277 130 298 0 23 -54 163 -130 337 -56 129 -161
358 -166 364 -4 4 -62 10 -66 6z"/>
<path d="M1589 1666 c-3 -3 -141 -15 -227 -19 -10 0 -12 -102 -10 -491 l3
-491 130 0 130 0 3 503 c2 415 0 502 -11 502 -8 0 -16 -2 -18 -4z"/>
<path d="M3846 1663 c-2 -2 -47 -6 -101 -9 -54 -3 -102 -7 -107 -10 -4 -3 -8
-14 -8 -25 0 -11 -89 -142 -198 -292 -258 -353 -462 -644 -462 -657 0 -12 298
-14 316 -2 6 4 73 95 149 202 76 107 150 211 164 230 l26 35 5 -235 5 -235
133 -3 132 -3 0 504 0 503 -25 0 c-14 0 -27 -1 -29 -3z"/>
<path d="M4186 1663 c-1 -1 -44 -5 -96 -7 -51 -3 -97 -9 -102 -14 -4 -4 -7
-226 -6 -493 l3 -484 124 -3 c93 -2 126 1 133 10 4 7 8 234 8 504 l0 492 -31
-2 c-17 0 -32 -2 -33 -3z"/>
<path d="M2118 1655 c-5 -5 -117 -18 -173 -19 l-50 -2 0 -484 0 -485 110 -3
c172 -4 155 -30 155 233 0 127 4 226 9 230 5 3 82 -98 171 -224 103 -145 170
-231 184 -235 11 -3 86 -6 165 -6 119 0 142 2 138 14 -8 21 -291 421 -482 680
-92 126 -172 244 -178 262 -8 27 -37 50 -49 39z"/>
<path d="M4717 1653 c-4 -3 -122 -16 -172 -18 -27 -2 -58 -3 -67 -4 -17 -1
-18 -30 -18 -469 0 -361 3 -472 13 -485 11 -15 28 -17 137 -15 l125 3 3 363
c1 199 5 362 8 362 4 0 56 -46 118 -102 61 -57 116 -107 122 -113 6 -5 55 -51
110 -101 103 -94 301 -274 394 -358 l55 -49 3 179 3 179 -53 50 c-29 28 -96
88 -148 135 -52 47 -184 167 -293 267 l-198 181 -70 -1 c-39 -1 -71 -3 -72 -4z"/>
</g>
</svg>
